PathFileType	4	(X/Y/Z)	C:\Users\WrightLab\Desktop\Jo\P4V128.trc
DataRate	CameraRate	NumFrames	NumMarkers	Units	OrigDataRate	OrigDataStartFrame	OrigNumFrames
100.00	100.00	       19	19	mm	100.00	184	       489
Frame#	Time	Headset_Front			Headset_Back			Headset_Left			Headset_Right			Left_Shoulder			Right_Shoulder			Sternum			C7			Left Elbow			Right Elbow			Left Wrist			Right Wrist			Left ASIS			Right ASIS			S2			Left Knee			Right Knee			Left Ankle			Right Ankle			
		X1	Y1	Z1	X2	Y2	Z2	X3	Y3	Z3	X4	Y4	Z4	X5	Y5	Z5	X6	Y6	Z6	X7	Y7	Z7	X8	Y8	Z8	X9	Y9	Z9	X10	Y10	Z10	X11	Y11	Z11	X12	Y12	Z12	X13	Y13	Z13	X14	Y14	Z14	X15	Y15	Z15	X16	Y16	Z16	X17	Y17	Z17	X18	Y18	Z18	X19	Y19	Z19	

184	1.830							-427.30408	1052.16089	104.45811	-382.62302	1710.00098	343.60831	-223.69714	1523.49512	105.89546	-474.08722	1534.88757	277.88171	-281.46603	1461.96484	274.91962	-385.34616	1563.59656	149.29930	-122.21872	1174.99365	4.14619	-617.08893	1196.01868	371.45724	-53.31993	915.71704	163.89915	-530.27026	931.46875	496.11508	-199.39432	1031.50464	156.29501	-453.97876	1043.71960	376.17593				-87.86931	614.59821	308.63446	-491.10373	554.87805	341.89001	-333.95059	180.73059	164.90816	-546.74042	59.89016	210.90634	
185	1.840							-422.64975	1051.68982	112.88595	-377.07840	1708.84058	353.39832	-218.93480	1522.66162	113.69672	-467.42734	1534.27380	288.13568	-275.83444	1461.36035	283.88831	-380.23019	1562.88879	159.20073	-119.31847	1174.90466	9.91334	-610.52429	1195.81787	384.60236	-47.29420	915.36151	167.98906	-520.66595	931.91193	509.70990	-194.81639	1031.57568	165.42844	-447.51755	1043.25623	385.76160				-79.75362	617.37256	318.83945	-488.81274	553.91467	345.81790	-310.56967	169.26897	191.13527	-547.68451	62.13440	209.80028	
186	1.850							-418.05319	1051.49963	121.99785	-371.33780	1707.56055	363.09348	-214.91699	1521.48657	122.60912	-461.30634	1533.58313	298.76553	-269.48193	1460.08142	292.73141	-374.94632	1562.22131	169.01907	-116.56795	1174.04541	15.77328	-604.04846	1195.76184	397.61862	-41.30167	914.55420	171.85284	-511.71167	932.21466	522.58301	-190.03996	1031.25269	174.00061	-442.21118	1041.55627	395.85324				-71.88032	619.76227	328.85190	-485.20789	553.00262	349.46866	-286.27954	157.83240	216.75879	-546.41162	60.79801	211.18739	
187	1.860							-413.01654	1050.76746	131.79106	-364.77710	1706.22693	372.52127	-209.77933	1519.81482	132.13324	-455.00021	1532.34814	308.85233	-263.49902	1458.94885	301.51740	-369.55560	1561.08154	178.59975	-113.39037	1172.85425	21.16303	-597.00415	1195.42749	410.24673	-35.93758	913.62952	175.69023	-502.82782	932.51904	535.97766	-184.15135	1031.13940	183.99109	-436.18463	1039.37256	404.56702				-64.35490	620.77264	338.55609	-482.26358	551.61346	354.21121	-260.14932	147.12668	241.93497	-546.33612	61.09935	211.13187	
188	1.870							-407.82480	1049.57654	141.32994	-358.81067	1704.59106	382.22156	-204.58998	1519.24072	139.81886	-448.79245	1531.67810	319.58093	-257.15622	1457.41382	310.37961	-363.89362	1559.96301	188.17378	-109.91115	1172.12292	27.97472	-590.43982	1195.15942	423.08136	-30.17328	911.84595	179.65707	-494.17194	933.95258	548.81439	-179.27863	1030.82178	191.96063	-430.33493	1038.00806	415.08618				-57.62172	621.65277	347.24622	-479.02728	550.70557	358.49359	-233.51604	135.63095	267.56671	-546.16986	61.47665	211.04207	
189	1.880							-402.75238	1048.10352	152.75076	-352.67035	1703.06531	391.83426	-199.40842	1517.85559	147.57703	-442.19846	1530.23926	329.36761	-250.55115	1455.69531	319.26361	-358.28268	1558.78357	197.92888	-106.64774	1170.79041	33.75092	-582.94147	1194.35876	435.46762	-24.26847	909.87958	183.79114	-485.15039	933.84229	561.95831	-173.55824	1030.07739	200.91695	-424.36691	1036.37231	425.08191				-51.31731	621.64532	356.60837	-475.27103	549.29645	363.30109	-206.26990	125.38208	292.58990	-545.42468	61.80276	210.48193	
190	1.890							-396.90277	1046.86145	161.90752	-346.41068	1701.53381	401.31671	-193.90654	1515.88855	156.73967	-436.03159	1529.20508	339.80756	-244.50835	1454.50378	328.33270	-352.15948	1557.25391	207.07806	-102.76134	1169.36511	40.59057	-575.84265	1193.99854	446.28873	-18.80818	907.51257	187.58862	-476.31534	934.01624	575.41290	-168.28210	1029.18872	210.31924	-418.35822	1033.90381	434.08673				-45.36858	620.74146	365.39755	-471.73526	548.10535	367.92627	-177.40109	115.39159	318.04190	-545.40930	62.08606	210.91870	
191	1.900							-391.20108	1046.19751	172.19258	-340.28256	1699.37927	411.01749	-188.76379	1514.50916	165.11696	-429.33139	1527.52271	349.28497	-238.01175	1452.78857	337.47620	-346.33810	1555.85596	216.87097	-98.93370	1167.84229	47.41487	-568.17712	1191.85254	458.64859	-13.32813	904.83502	191.27350	-467.09912	933.70135	587.30206	-162.62926	1028.13953	220.32198	-412.26978	1032.40881	443.86774				-40.44274	618.79926	373.65564	-468.37421	546.97345	372.42599	-147.69759	105.46382	342.29675	-545.02045	62.48763	211.07054	
192	1.910							-384.80600	1045.18701	180.80627	-333.83548	1697.58496	420.51779	-182.74120	1512.42017	172.91103	-422.44318	1526.21729	358.96317	-231.41924	1451.30188	346.56815	-339.84244	1554.40576	225.94824	-95.03871	1166.15271	54.34211	-560.15747	1191.07190	470.56958	-7.77047	902.16602	195.42288	-457.87527	933.13916	600.05902	-155.70297	1026.83716	229.85089	-406.49753	1030.13379	453.87759				-35.21502	616.38470	381.01682	-464.61542	545.71375	377.09503	-116.96561	96.76251	368.25674	-544.65833	62.92884	211.19971	
193	1.920							-378.10770	1043.74805	191.92937	-327.42975	1695.72668	430.04147	-176.53560	1510.96045	184.14578	-415.94754	1524.61621	368.46072	-224.69762	1449.78125	355.62503	-333.29996	1552.64075	235.17821	-90.90430	1164.71497	61.52793	-552.61725	1189.81396	481.72794	-2.38553	898.76093	199.00775	-448.86493	933.00635	612.35382	-148.93504	1025.41284	239.70050	-400.15204	1027.58960	463.11649				-30.93680	612.38068	388.44070	-460.73520	544.22729	382.13965	-85.79725	89.68645	391.83676	-544.24847	63.45944	211.46321	
194	1.930							-371.30975	1042.86597	199.95076	-321.35870	1693.58203	439.76276	-170.55087	1509.03345	192.58476	-409.20139	1522.92615	377.81967	-218.26529	1448.07715	364.98938	-326.96976	1550.86438	244.89392	-86.31316	1163.13196	68.50220	-544.63184	1188.13220	492.86774	4.17345	895.53357	202.74640	-439.22836	932.69110	625.43604	-142.01292	1023.95453	249.72372	-395.35855	1024.78748	470.96609				-26.68914	607.96973	395.13525	-457.22647	543.31934	385.61859	-53.34088	84.50808	415.40445	-543.76038	64.01047	211.70517	
195	1.940							-364.11203	1041.43164	210.28262	-314.32059	1691.49390	449.06424	-164.00499	1506.74280	201.49680	-402.59436	1521.42383	387.96176	-211.15935	1446.14551	374.24869	-320.15866	1549.20630	254.13214	-81.24207	1161.14722	76.84339	-536.86859	1186.53882	503.56607	8.71742	892.20020	206.41988	-430.54663	932.46820	637.28729	-134.66817	1022.07849	261.18317	-388.85178	1023.09515	481.31714				-23.14530	602.17352	401.75821	-453.10941	541.39801	391.55463	-22.46924	80.06876	437.96390	-542.85767	64.81081	211.81703	
196	1.950							-356.61771	1039.95984	220.02731	-308.01337	1689.64954	458.59375	-157.47299	1504.72961	209.07533	-395.59119	1519.43469	396.96954	-204.58348	1444.53760	383.75439	-313.13565	1547.05530	263.22653	-76.39655	1159.18665	83.98621	-528.80908	1184.62256	513.78601	15.39536	889.22418	210.78448	-422.04196	932.42468	649.25085	-127.57699	1020.30438	271.56644	-382.82452	1020.51886	491.14548				-19.02776	596.58002	408.42065	-448.88846	540.09003	395.02887	7.82882	79.01830	459.52917	-542.00525	65.75549	212.16383	
197	1.960							-348.42529	1038.02942	229.53862	-301.32327	1687.13562	468.08582	-150.77058	1503.26868	219.03682	-388.58194	1517.74341	406.21884	-196.54884	1441.91638	392.05298	-306.40237	1544.92297	272.81760	-71.06905	1157.00562	92.46670	-521.22430	1183.11267	524.22302	21.01441	885.87317	215.31410	-413.01624	931.49158	661.02020	-119.29430	1017.97778	283.11938	-376.75848	1017.57922	500.12881				-14.91595	591.51129	414.35977	-445.48242	539.13776	400.46069	36.86816	79.22942	479.53717	-541.40594	67.60278	212.19231	
198	1.970							-340.21277	1035.68579	240.13142	-293.76727	1684.77490	477.19366	-143.76959	1501.19165	229.50456	-381.81219	1516.01184	415.50449	-189.20149	1439.76770	401.41559	-298.65485	1542.68237	281.93625	-65.73019	1155.64185	100.18542	-513.79645	1181.25415	533.93622	26.75878	882.62524	219.36354	-404.03720	930.24976	672.36249	-111.36799	1016.22485	294.61270	-369.46631	1015.70959	510.95538				-9.44841	586.31946	419.60568	-440.93567	537.83099	405.57547	63.70287	81.11233	498.58707	-540.41895	69.20538	212.58310	
199	1.980	-149.90129	1645.30652	537.74316							-287.38513	1682.73242	486.62732	-135.92209	1498.48035	238.47652	-374.84857	1513.86316	424.45093	-181.98109	1437.34424	411.25601	-291.84537	1540.63916	291.11111	-59.87763	1153.50891	108.14483	-506.04211	1178.10034	543.66272	32.67603	878.98798	223.88815	-395.57169	930.30273	683.65063	-103.49409	1013.98737	306.31726	-363.57938	1013.59644	519.51404				-2.52169	581.96265	425.06729	-436.36810	536.48529	411.47391	86.81625	83.26195	516.72528	-539.28802	71.31136	212.82016	
200	1.990	-141.37459	1642.56934	546.79614							-280.44940	1680.86865	495.83405	-128.62646	1496.08008	248.09843	-367.71225	1511.80652	433.52423	-175.48108	1435.79700	421.08920	-284.65146	1538.40015	300.58774	-53.74021	1151.82275	115.49534	-497.81549	1176.02087	552.87274	38.16904	875.09045	229.01758	-386.74390	929.22595	694.42023	-95.54792	1011.68945	317.95016	-357.00159	1010.68701	530.20184				5.00020	578.62427	430.83200	-431.78207	535.57294	417.19739	107.05939	85.40551	533.61578	-538.36139	73.53820	213.54129	
201	2.000	-135.12450	1640.56189	556.51251							-274.30832	1679.02478	505.37234	-121.30965	1494.37378	257.93655	-360.36786	1509.83215	442.54700	-167.42477	1433.63440	430.28787	-277.21942	1536.23633	309.83975	-47.43605	1149.93738	124.87568	-490.73148	1174.32275	563.60840	44.17461	871.27075	233.63409	-378.21872	928.27667	705.42493	-87.90488	1009.11035	329.44379	-350.19388	1008.37579	539.02228	-313.80682	1028.76416	270.06415	13.97643	575.61163	436.41180	-426.51382	534.83051	423.32059	123.93999	86.16322	549.54291	-537.51514	75.99442	214.64452	
202	2.010	-128.37122	1639.39795	565.98016							-266.60760	1676.87451	514.35291	-113.15964	1492.24475	268.07391	-353.50012	1507.65332	451.55652	-160.43199	1431.73975	440.42325	-269.39169	1534.31970	318.85925	-40.84672	1147.45410	133.61717	-483.11401	1172.48962	571.59528	49.40821	867.54889	238.84544	-369.82721	927.42865	716.21271	-77.32160	1008.81171	340.36871	-342.59869	1006.85010	549.03064	-304.77731	1026.56555	279.06342	24.05728	573.65125	443.77594	-421.30670	534.19757	430.30618	138.17445	84.48737	562.91370	-536.86713	78.53069	216.15547	
